<svg width="1200" height="630" viewBox="0 0 1200 630" xmlns="http://www.w3.org/2000/svg">
  <defs>
    <linearGradient id="bg" x1="0%" y1="0%" x2="100%" y2="100%">
      <stop offset="0%" style="stop-color:#0A1628"/>
      <stop offset="60%" style="stop-color:#0D1F3C"/>
      <stop offset="100%" style="stop-color:#0A1628"/>
    </linearGradient>
    <linearGradient id="accent" x1="0%" y1="0%" x2="100%" y2="0%">
      <stop offset="0%" style="stop-color:#1D5DD4"/>
      <stop offset="100%" style="stop-color:#3B7FE8"/>
    </linearGradient>
    <linearGradient id="glow" x1="0%" y1="0%" x2="0%" y2="100%">
      <stop offset="0%" style="stop-color:#1D5DD4;stop-opacity:0.3"/>
      <stop offset="100%" style="stop-color:#1D5DD4;stop-opacity:0"/>
    </linearGradient>
    <filter id="blur1">
      <feGaussianBlur stdDeviation="40"/>
    </filter>
    <filter id="blur2">
      <feGaussianBlur stdDeviation="25"/>
    </filter>
  </defs>

  <!-- Background -->
  <rect width="1200" height="630" fill="url(#bg)"/>

  <!-- Glow circles -->
  <circle cx="200" cy="300" r="280" fill="#1D5DD4" opacity="0.08" filter="url(#blur1)"/>
  <circle cx="950" cy="200" r="220" fill="#1D5DD4" opacity="0.06" filter="url(#blur1)"/>
  <circle cx="1100" cy="500" r="180" fill="#F59E0B" opacity="0.04" filter="url(#blur2)"/>

  <!-- Grid dots -->
  <g opacity="0.07">
    <circle cx="80" cy="80" r="2" fill="#fff"/>
    <circle cx="160" cy="80" r="2" fill="#fff"/>
    <circle cx="240" cy="80" r="2" fill="#fff"/>
    <circle cx="320" cy="80" r="2" fill="#fff"/>
    <circle cx="80" cy="160" r="2" fill="#fff"/>
    <circle cx="160" cy="160" r="2" fill="#fff"/>
    <circle cx="240" cy="160" r="2" fill="#fff"/>
    <circle cx="1040" cy="400" r="2" fill="#fff"/>
    <circle cx="1120" cy="400" r="2" fill="#fff"/>
    <circle cx="1040" cy="480" r="2" fill="#fff"/>
    <circle cx="1120" cy="480" r="2" fill="#fff"/>
    <circle cx="1040" cy="560" r="2" fill="#fff"/>
    <circle cx="1120" cy="560" r="2" fill="#fff"/>
  </g>

  <!-- Top accent bar -->
  <rect x="0" y="0" width="1200" height="4" fill="url(#accent)"/>

  <!-- Left content area -->
  <!-- Badge pill -->
  <rect x="80" y="90" width="270" height="36" rx="18" fill="rgba(29,93,212,0.2)" stroke="rgba(29,93,212,0.4)" stroke-width="1"/>
  <circle cx="104" cy="108" r="5" fill="#F59E0B"/>
  <text x="120" y="113" font-family="Inter, Arial, sans-serif" font-size="13" font-weight="600" fill="rgba(255,255,255,0.7)" letter-spacing="2">BUSINESS TECH FOR INDIAN SMES</text>

  <!-- Logo -->
  <text x="80" y="200" font-family="Inter, Arial, sans-serif" font-size="62" font-weight="800" fill="#1D5DD4" letter-spacing="-3">S</text>
  <text x="122" y="200" font-family="Inter, Arial, sans-serif" font-size="62" font-weight="800" fill="white" letter-spacing="-2">evako</text>
  <circle cx="285" cy="180" r="6" fill="#F59E0B"/>
  <text x="80" y="222" font-family="Inter, Arial, sans-serif" font-size="13" font-weight="500" fill="rgba(255,255,255,0.4)" letter-spacing="3">YOUR VISION. OUR TECHNOLOGY.</text>

  <!-- Main tagline -->
  <text x="80" y="295" font-family="Inter, Arial, sans-serif" font-size="44" font-weight="800" fill="white" letter-spacing="-1">Your Operations.</text>
  <text x="80" y="348" font-family="Inter, Arial, sans-serif" font-size="44" font-weight="800" fill="#3B7FE8" letter-spacing="-1">Automated.</text>
  <text x="80" y="401" font-family="Inter, Arial, sans-serif" font-size="44" font-weight="800" fill="white" letter-spacing="-1">Your Growth.</text>
  <text x="80" y="454" font-family="Inter, Arial, sans-serif" font-size="44" font-weight="800" fill="#F59E0B" letter-spacing="-1">Accelerated.</text>

  <!-- Sub text -->
  <text x="80" y="510" font-family="Inter, Arial, sans-serif" font-size="17" fill="rgba(255,255,255,0.5)">Custom apps · POS systems · Automation · Dashboards</text>

  <!-- Divider -->
  <rect x="80" y="535" width="480" height="1" fill="rgba(255,255,255,0.1)"/>

  <!-- Stats row -->
  <text x="80" y="565" font-family="Inter, Arial, sans-serif" font-size="22" font-weight="800" fill="white">50+</text>
  <text x="120" y="565" font-family="Inter, Arial, sans-serif" font-size="13" fill="rgba(255,255,255,0.45)"> Businesses Automated</text>
  <text x="310" y="565" font-family="Inter, Arial, sans-serif" font-size="22" font-weight="800" fill="white">48h</text>
  <text x="350" y="565" font-family="Inter, Arial, sans-serif" font-size="13" fill="rgba(255,255,255,0.45)"> Go-Live</text>
  <text x="460" y="565" font-family="Inter, Arial, sans-serif" font-size="22" font-weight="800" fill="white">₹699</text>
  <text x="510" y="565" font-family="Inter, Arial, sans-serif" font-size="13" fill="rgba(255,255,255,0.45)">/mo</text>

  <!-- Right: Dashboard card mockup -->
  <rect x="720" y="60" width="410" height="510" rx="18" fill="rgba(255,255,255,0.97)" filter="drop-shadow(0 20px 60px rgba(0,0,0,0.4))"/>

  <!-- Dashboard header -->
  <rect x="720" y="60" width="410" height="56" rx="18" fill="#1D5DD4"/>
  <rect x="720" y="96" width="410" height="20" rx="0" fill="#1D5DD4"/>
  <text x="748" y="93" font-family="Inter, Arial, sans-serif" font-size="13" font-weight="700" fill="white">OPERATIONS DASHBOARD</text>
  <circle cx="1090" cy="88" r="6" fill="#22C55E"/>
  <text x="1103" y="92" font-family="Inter, Arial, sans-serif" font-size="11" fill="rgba(255,255,255,0.8)">Live</text>

  <!-- Card row 1 -->
  <rect x="740" y="136" width="176" height="90" rx="10" fill="white" stroke="#E2E8F0" stroke-width="1"/>
  <text x="758" y="158" font-family="Inter, Arial, sans-serif" font-size="10" fill="#94A3B8" font-weight="600">STAFF PRESENT</text>
  <text x="758" y="195" font-family="Inter, Arial, sans-serif" font-size="28" font-weight="800" fill="#1D5DD4">94.2%</text>
  <text x="758" y="215" font-family="Inter, Arial, sans-serif" font-size="10" fill="#22C55E">▲ 2.1% vs yesterday</text>

  <rect x="932" y="136" width="176" height="90" rx="10" fill="white" stroke="#E2E8F0" stroke-width="1"/>
  <text x="950" y="158" font-family="Inter, Arial, sans-serif" font-size="10" fill="#94A3B8" font-weight="600">PENDING APPROVALS</text>
  <text x="950" y="195" font-family="Inter, Arial, sans-serif" font-size="28" font-weight="800" fill="#1e293b">3</text>
  <text x="950" y="215" font-family="Inter, Arial, sans-serif" font-size="10" fill="#EF4444">2 due today</text>

  <!-- Rows -->
  <rect x="740" y="246" width="368" height="1" fill="#F1F5F9"/>
  <rect x="748" y="264" width="8" height="8" rx="2" fill="#F59E0B"/>
  <text x="766" y="272" font-family="Inter, Arial, sans-serif" font-size="12" fill="#475569">Tickets Resolved</text>
  <text x="1078" y="272" font-family="Inter, Arial, sans-serif" font-size="12" font-weight="600" fill="#1e293b" text-anchor="end">47 / 51</text>

  <rect x="740" y="286" width="368" height="1" fill="#F1F5F9"/>
  <rect x="748" y="304" width="8" height="8" rx="2" fill="#EF4444"/>
  <text x="766" y="312" font-family="Inter, Arial, sans-serif" font-size="12" fill="#475569">Stock Alerts</text>
  <text x="1078" y="312" font-family="Inter, Arial, sans-serif" font-size="12" font-weight="600" fill="#1e293b" text-anchor="end">2 items</text>

  <rect x="740" y="326" width="368" height="1" fill="#F1F5F9"/>
  <rect x="748" y="344" width="8" height="8" rx="2" fill="#1D5DD4"/>
  <text x="766" y="352" font-family="Inter, Arial, sans-serif" font-size="12" fill="#475569">Payments Settled</text>
  <text x="1078" y="352" font-family="Inter, Arial, sans-serif" font-size="12" font-weight="600" fill="#1e293b" text-anchor="end">₹89,200</text>

  <!-- Monthly target -->
  <rect x="740" y="376" width="368" height="1" fill="#F1F5F9"/>
  <text x="748" y="400" font-family="Inter, Arial, sans-serif" font-size="10" fill="#94A3B8" font-weight="600">MONTHLY TARGET</text>
  <rect x="748" y="410" width="352" height="8" rx="4" fill="#F1F5F9"/>
  <rect x="748" y="410" width="240" height="8" rx="4" fill="#1D5DD4"/>
  <text x="748" y="435" font-family="Inter, Arial, sans-serif" font-size="10" fill="#94A3B8">68% achieved</text>
  <text x="1100" y="435" font-family="Inter, Arial, sans-serif" font-size="10" fill="#22C55E" text-anchor="end">On track ✓</text>

  <!-- Product tags -->
  <rect x="740" y="455" width="90" height="26" rx="6" fill="#EFF6FF" stroke="#BFDBFE" stroke-width="1"/>
  <text x="785" y="472" font-family="Inter, Arial, sans-serif" font-size="10" font-weight="600" fill="#1D5DD4" text-anchor="middle">SalonOS</text>
  <rect x="840" y="455" width="90" height="26" rx="6" fill="#EFF6FF" stroke="#BFDBFE" stroke-width="1"/>
  <text x="885" y="472" font-family="Inter, Arial, sans-serif" font-size="10" font-weight="600" fill="#1D5DD4" text-anchor="middle">SevakoPOS</text>
  <rect x="940" y="455" width="90" height="26" rx="6" fill="#EFF6FF" stroke="#BFDBFE" stroke-width="1"/>
  <text x="985" y="472" font-family="Inter, Arial, sans-serif" font-size="10" font-weight="600" fill="#1D5DD4" text-anchor="middle">RevTracker</text>
  <rect x="1040" y="455" width="78" height="26" rx="6" fill="#EFF6FF" stroke="#BFDBFE" stroke-width="1"/>
  <text x="1079" y="472" font-family="Inter, Arial, sans-serif" font-size="10" font-weight="600" fill="#1D5DD4" text-anchor="middle">Helpdesk</text>

  <!-- URL -->
  <text x="740" y="540" font-family="Inter, Arial, sans-serif" font-size="13" fill="#94A3B8">sevako.in</text>
  <text x="1100" y="540" font-family="Inter, Arial, sans-serif" font-size="11" fill="#22C55E" text-anchor="end">● enquiry@sevako.in</text>

  <!-- Bottom bar -->
  <rect x="0" y="626" width="1200" height="4" fill="url(#accent)" opacity="0.5"/>
</svg>
